<svg width="54" height="67" viewBox="0 0 54 67" fill="none" xmlns="http://www.w3.org/2000/svg">
<path d="M26.6571 66.6762C21.6348 64.1231 16.9451 61.8818 12.5988 58.6407C5.36577 53.255 0.563405 45.6494 0 36.6034L0.0482918 9.66953C9.63691 8.31504 18.1738 4.91808 26.6571 0C35.0438 4.84283 43.7632 8.26129 53.4698 9.68027L53.4967 36.5873C53.0942 44.9776 49.0163 52.309 42.3949 57.4152C37.7428 61.3873 32.5004 63.8598 26.6518 66.6709L26.6571 66.6762ZM26.7591 64.4886C32.6239 61.7743 37.6999 59.0815 42.1803 55.0449C47.7285 50.5299 51.007 44.3326 51.6777 37.1301L51.7367 11.2336C42.6739 9.79853 34.4911 6.69718 26.7108 2.15534C18.7909 6.83155 10.6993 9.68565 1.80826 11.3304L1.79217 36.6625C2.46289 44.209 6.07941 50.8094 11.8691 55.5824C16.3173 59.2911 21.0982 61.9302 26.7591 64.4886Z" fill="#8A2827"/>
<path d="M18.5381 31.7982C18.243 30.5673 19.0908 29.0086 17.7386 27.6057C17.2986 30.1158 16.2147 31.8573 15.2059 33.9267C12.3514 39.7907 13.6982 47.1276 19.5415 50.4546C19.2088 47.1061 19.3483 43.478 21.838 41.8171C22.9219 41.0915 23.7321 41.2581 24.3009 39.651L26.3936 33.6956C29.1301 35.5553 30.1764 37.9686 30.9545 41.07C31.3623 40.4787 33.1544 39.694 33.4549 40.4142C34.1686 42.1396 31.1315 43.736 29.5808 43.048C28.953 41.3172 29.0174 38.5706 27.1931 37.0334L24.6712 42.5803C24.5155 42.9243 24.7409 43.9725 24.5692 44.2412C24.3331 44.6228 23.0453 43.8327 22.5463 43.5801C19.8366 46.2246 20.7059 50.5944 24.2526 53.6312C19.0371 54.1204 15.4045 50.0032 13.5694 46.4288C11.0528 41.5215 11.7182 36.383 14.2991 31.9648C15.6137 29.7127 16.7084 27.638 16.0645 24.6603C17.7654 24.5366 18.3771 25.2461 19.2464 26.8801C22.8092 22.994 24.537 18.3447 23.9199 12.271C30.0959 15.582 33.0847 21.8277 33.4281 28.8527C34.8339 27.509 34.7481 25.6654 37.0124 24.8108C37.4417 27.2564 38.2895 29.2881 39.2285 31.379C43.564 41.07 39.7221 51.8575 30.3857 54.0827C29.8598 54.2064 30.0047 52.4918 30.654 52.0886C34.7105 49.5839 31.9954 44.0531 32.7305 43.8327C33.2349 43.6822 33.8734 44.0316 34.1525 44.5906C35.07 46.4181 33.9915 48.095 33.8895 50.503C41.4123 44.9399 40.1568 36.0982 35.9017 28.4174C34.4744 30.6533 33.2349 32.3088 32.2315 31.6692C31.2281 31.0296 33.0954 21.8277 25.9321 15.8991C25.3633 19.9303 24.3224 23.0048 22.1331 25.8535C19.9439 28.7022 20.8454 30.4867 20.0244 32.1099C19.8634 32.4271 18.7956 32.8517 18.5434 31.7928L18.5381 31.7982Z" fill="#8A2827"/>
</svg>
